<mxfile host="app.diagrams.net" modified="2020-10-31T05:08:31.258Z" agent="5.0 (Macintosh; Intel Mac OS X 10_15_1) AppleWebKit/537.36 (KHTML, like Gecko) Chrome/86.0.4240.80 Safari/537.36" etag="suH3BRiGumDhErwogbHU" version="13.8.8" type="github">
  <diagram id="o7BJaHzfwVbvE81LBurC" name="Page-1">
    <mxGraphModel dx="1479" dy="1482" grid="1" gridSize="10" guides="1" tooltips="1" connect="1" arrows="1" fold="1" page="1" pageScale="1" pageWidth="827" pageHeight="1169" math="0" shadow="0">
      <root>
        <mxCell id="0" />
        <mxCell id="1" parent="0" />
        <mxCell id="1MLrccxjdp3mu_vWYp1V-21" value="需求单" style="swimlane;startSize=20;horizontal=0;dashed=1;" parent="1" vertex="1">
          <mxGeometry x="-150" y="-30" width="2550" height="240" as="geometry">
            <mxRectangle x="270" y="340" width="30" height="60" as="alternateBounds" />
          </mxGeometry>
        </mxCell>
        <mxCell id="1MLrccxjdp3mu_vWYp1V-1" value="下单" style="strokeWidth=2;html=1;shape=mxgraph.flowchart.terminator;whiteSpace=wrap;" parent="1MLrccxjdp3mu_vWYp1V-21" vertex="1">
          <mxGeometry x="130" y="110" width="80" height="40" as="geometry" />
        </mxCell>
        <mxCell id="1MLrccxjdp3mu_vWYp1V-3" style="edgeStyle=none;rounded=0;orthogonalLoop=1;jettySize=auto;html=1;exitX=1;exitY=0.5;exitDx=0;exitDy=0;exitPerimeter=0;" parent="1MLrccxjdp3mu_vWYp1V-21" source="1MLrccxjdp3mu_vWYp1V-1" target="SHjtx8wU5vL2sY_37cBv-20" edge="1">
          <mxGeometry relative="1" as="geometry">
            <mxPoint x="140" y="80" as="sourcePoint" />
            <mxPoint x="260" y="100" as="targetPoint" />
          </mxGeometry>
        </mxCell>
        <mxCell id="SHjtx8wU5vL2sY_37cBv-4" style="edgeStyle=orthogonalEdgeStyle;rounded=0;orthogonalLoop=1;jettySize=auto;html=1;entryX=0;entryY=0.5;entryDx=0;entryDy=0;entryPerimeter=0;" edge="1" parent="1MLrccxjdp3mu_vWYp1V-21" source="SHjtx8wU5vL2sY_37cBv-3" target="1MLrccxjdp3mu_vWYp1V-1">
          <mxGeometry relative="1" as="geometry" />
        </mxCell>
        <mxCell id="SHjtx8wU5vL2sY_37cBv-3" value="用户" style="shape=actor;whiteSpace=wrap;html=1;" vertex="1" parent="1MLrccxjdp3mu_vWYp1V-21">
          <mxGeometry x="40" y="100" width="40" height="60" as="geometry" />
        </mxCell>
        <mxCell id="SHjtx8wU5vL2sY_37cBv-25" style="edgeStyle=orthogonalEdgeStyle;rounded=0;orthogonalLoop=1;jettySize=auto;html=1;entryX=0;entryY=0.5;entryDx=0;entryDy=0;entryPerimeter=0;" edge="1" parent="1MLrccxjdp3mu_vWYp1V-21" source="SHjtx8wU5vL2sY_37cBv-20" target="SHjtx8wU5vL2sY_37cBv-23">
          <mxGeometry relative="1" as="geometry">
            <Array as="points">
              <mxPoint x="320" y="30" />
            </Array>
          </mxGeometry>
        </mxCell>
        <mxCell id="SHjtx8wU5vL2sY_37cBv-20" value="待支付&lt;br&gt;（状态为6）" style="rounded=1;whiteSpace=wrap;html=1;absoluteArcSize=1;arcSize=14;strokeWidth=2;" vertex="1" parent="1MLrccxjdp3mu_vWYp1V-21">
          <mxGeometry x="270" y="100" width="100" height="60" as="geometry" />
        </mxCell>
        <mxCell id="SHjtx8wU5vL2sY_37cBv-28" style="edgeStyle=orthogonalEdgeStyle;rounded=0;orthogonalLoop=1;jettySize=auto;html=1;exitX=1;exitY=0.5;exitDx=0;exitDy=0;entryX=0;entryY=0.5;entryDx=0;entryDy=0;entryPerimeter=0;" edge="1" parent="1MLrccxjdp3mu_vWYp1V-21" source="SHjtx8wU5vL2sY_37cBv-22" target="SHjtx8wU5vL2sY_37cBv-26">
          <mxGeometry relative="1" as="geometry">
            <Array as="points">
              <mxPoint x="550" y="130" />
              <mxPoint x="550" y="100" />
            </Array>
          </mxGeometry>
        </mxCell>
        <mxCell id="SHjtx8wU5vL2sY_37cBv-29" style="edgeStyle=orthogonalEdgeStyle;rounded=0;orthogonalLoop=1;jettySize=auto;html=1;entryX=0;entryY=0.5;entryDx=0;entryDy=0;entryPerimeter=0;" edge="1" parent="1MLrccxjdp3mu_vWYp1V-21" source="SHjtx8wU5vL2sY_37cBv-22" target="SHjtx8wU5vL2sY_37cBv-27">
          <mxGeometry relative="1" as="geometry">
            <Array as="points">
              <mxPoint x="550" y="130" />
              <mxPoint x="550" y="170" />
            </Array>
          </mxGeometry>
        </mxCell>
        <mxCell id="SHjtx8wU5vL2sY_37cBv-22" value="匹配中&lt;br&gt;（状态为0）" style="rounded=1;whiteSpace=wrap;html=1;absoluteArcSize=1;arcSize=14;strokeWidth=2;" vertex="1" parent="1MLrccxjdp3mu_vWYp1V-21">
          <mxGeometry x="420" y="100" width="100" height="60" as="geometry" />
        </mxCell>
        <mxCell id="SHjtx8wU5vL2sY_37cBv-23" value="未支付取消&lt;br&gt;（状态为17，未上线）" style="strokeWidth=2;html=1;shape=mxgraph.flowchart.terminator;whiteSpace=wrap;" vertex="1" parent="1MLrccxjdp3mu_vWYp1V-21">
          <mxGeometry x="580" y="10" width="100" height="40" as="geometry" />
        </mxCell>
        <mxCell id="SHjtx8wU5vL2sY_37cBv-21" style="edgeStyle=none;rounded=0;orthogonalLoop=1;jettySize=auto;html=1;entryX=0;entryY=0.5;entryDx=0;entryDy=0;" edge="1" parent="1MLrccxjdp3mu_vWYp1V-21" source="SHjtx8wU5vL2sY_37cBv-20" target="SHjtx8wU5vL2sY_37cBv-22">
          <mxGeometry relative="1" as="geometry">
            <mxPoint x="420" y="160" as="targetPoint" />
          </mxGeometry>
        </mxCell>
        <mxCell id="SHjtx8wU5vL2sY_37cBv-26" value="逾时取消&lt;br&gt;（状态为5）" style="strokeWidth=2;html=1;shape=mxgraph.flowchart.terminator;whiteSpace=wrap;" vertex="1" parent="1MLrccxjdp3mu_vWYp1V-21">
          <mxGeometry x="580" y="80" width="100" height="40" as="geometry" />
        </mxCell>
        <mxCell id="SHjtx8wU5vL2sY_37cBv-27" value="用户取消&lt;br&gt;（状态为3）" style="strokeWidth=2;html=1;shape=mxgraph.flowchart.terminator;whiteSpace=wrap;" vertex="1" parent="1MLrccxjdp3mu_vWYp1V-21">
          <mxGeometry x="580" y="150" width="100" height="40" as="geometry" />
        </mxCell>
        <mxCell id="1MLrccxjdp3mu_vWYp1V-28" value="货运单" style="swimlane;startSize=20;horizontal=0;dashed=1;" parent="1" vertex="1">
          <mxGeometry x="-150" y="210" width="2550" height="280" as="geometry" />
        </mxCell>
        <mxCell id="SHjtx8wU5vL2sY_37cBv-5" value="司机" style="shape=actor;whiteSpace=wrap;html=1;" vertex="1" parent="1MLrccxjdp3mu_vWYp1V-28">
          <mxGeometry x="280" y="40" width="40" height="60" as="geometry" />
        </mxCell>
        <mxCell id="SHjtx8wU5vL2sY_37cBv-34" style="edgeStyle=orthogonalEdgeStyle;rounded=0;orthogonalLoop=1;jettySize=auto;html=1;entryX=0.5;entryY=0;entryDx=0;entryDy=0;" edge="1" parent="1MLrccxjdp3mu_vWYp1V-28" source="SHjtx8wU5vL2sY_37cBv-31" target="SHjtx8wU5vL2sY_37cBv-33">
          <mxGeometry relative="1" as="geometry" />
        </mxCell>
        <mxCell id="SHjtx8wU5vL2sY_37cBv-40" style="edgeStyle=orthogonalEdgeStyle;rounded=0;orthogonalLoop=1;jettySize=auto;html=1;exitX=1;exitY=0.5;exitDx=0;exitDy=0;exitPerimeter=0;entryX=0;entryY=0.5;entryDx=0;entryDy=0;" edge="1" parent="1MLrccxjdp3mu_vWYp1V-28" source="SHjtx8wU5vL2sY_37cBv-31" target="SHjtx8wU5vL2sY_37cBv-39">
          <mxGeometry relative="1" as="geometry" />
        </mxCell>
        <mxCell id="SHjtx8wU5vL2sY_37cBv-50" style="edgeStyle=orthogonalEdgeStyle;rounded=0;orthogonalLoop=1;jettySize=auto;html=1;exitX=0.89;exitY=0.89;exitDx=0;exitDy=0;exitPerimeter=0;entryX=0;entryY=0.5;entryDx=0;entryDy=0;entryPerimeter=0;" edge="1" parent="1MLrccxjdp3mu_vWYp1V-28" source="SHjtx8wU5vL2sY_37cBv-31" target="SHjtx8wU5vL2sY_37cBv-49">
          <mxGeometry relative="1" as="geometry">
            <Array as="points">
              <mxPoint x="560" y="86" />
              <mxPoint x="560" y="180" />
            </Array>
          </mxGeometry>
        </mxCell>
        <mxCell id="SHjtx8wU5vL2sY_37cBv-31" value="接单&lt;br&gt;（状态为1）" style="strokeWidth=2;html=1;shape=mxgraph.flowchart.terminator;whiteSpace=wrap;" vertex="1" parent="1MLrccxjdp3mu_vWYp1V-28">
          <mxGeometry x="430" y="50" width="80" height="40" as="geometry" />
        </mxCell>
        <mxCell id="SHjtx8wU5vL2sY_37cBv-30" style="edgeStyle=orthogonalEdgeStyle;rounded=0;orthogonalLoop=1;jettySize=auto;html=1;entryX=0;entryY=0.5;entryDx=0;entryDy=0;entryPerimeter=0;" edge="1" parent="1MLrccxjdp3mu_vWYp1V-28" source="SHjtx8wU5vL2sY_37cBv-5" target="SHjtx8wU5vL2sY_37cBv-31">
          <mxGeometry relative="1" as="geometry">
            <mxPoint x="410" y="70" as="targetPoint" />
          </mxGeometry>
        </mxCell>
        <mxCell id="SHjtx8wU5vL2sY_37cBv-33" value="司机取消&lt;br&gt;（状态为4）" style="rounded=1;whiteSpace=wrap;html=1;absoluteArcSize=1;arcSize=14;strokeWidth=2;" vertex="1" parent="1MLrccxjdp3mu_vWYp1V-28">
          <mxGeometry x="420" y="150" width="100" height="60" as="geometry" />
        </mxCell>
        <mxCell id="SHjtx8wU5vL2sY_37cBv-42" style="edgeStyle=orthogonalEdgeStyle;rounded=0;orthogonalLoop=1;jettySize=auto;html=1;entryX=0;entryY=0.5;entryDx=0;entryDy=0;" edge="1" parent="1MLrccxjdp3mu_vWYp1V-28" source="SHjtx8wU5vL2sY_37cBv-39" target="SHjtx8wU5vL2sY_37cBv-41">
          <mxGeometry relative="1" as="geometry" />
        </mxCell>
        <mxCell id="SHjtx8wU5vL2sY_37cBv-39" value="装货中&lt;br&gt;（状态为15）" style="rounded=1;whiteSpace=wrap;html=1;absoluteArcSize=1;arcSize=14;strokeWidth=2;" vertex="1" parent="1MLrccxjdp3mu_vWYp1V-28">
          <mxGeometry x="590" y="40" width="100" height="60" as="geometry" />
        </mxCell>
        <mxCell id="SHjtx8wU5vL2sY_37cBv-44" style="edgeStyle=orthogonalEdgeStyle;rounded=0;orthogonalLoop=1;jettySize=auto;html=1;entryX=0;entryY=0.5;entryDx=0;entryDy=0;" edge="1" parent="1MLrccxjdp3mu_vWYp1V-28" source="SHjtx8wU5vL2sY_37cBv-41" target="SHjtx8wU5vL2sY_37cBv-43">
          <mxGeometry relative="1" as="geometry" />
        </mxCell>
        <mxCell id="SHjtx8wU5vL2sY_37cBv-63" style="edgeStyle=orthogonalEdgeStyle;rounded=0;orthogonalLoop=1;jettySize=auto;html=1;" edge="1" parent="1MLrccxjdp3mu_vWYp1V-28" source="SHjtx8wU5vL2sY_37cBv-41" target="SHjtx8wU5vL2sY_37cBv-51">
          <mxGeometry relative="1" as="geometry">
            <mxPoint x="910" y="159" as="targetPoint" />
            <Array as="points">
              <mxPoint x="830" y="130" />
              <mxPoint x="910" y="130" />
              <mxPoint x="910" y="160" />
            </Array>
          </mxGeometry>
        </mxCell>
        <mxCell id="SHjtx8wU5vL2sY_37cBv-41" value="运送中&lt;br&gt;（状态为7）" style="rounded=1;whiteSpace=wrap;html=1;absoluteArcSize=1;arcSize=14;strokeWidth=2;" vertex="1" parent="1MLrccxjdp3mu_vWYp1V-28">
          <mxGeometry x="780" y="40" width="100" height="60" as="geometry" />
        </mxCell>
        <mxCell id="SHjtx8wU5vL2sY_37cBv-46" style="edgeStyle=orthogonalEdgeStyle;rounded=0;orthogonalLoop=1;jettySize=auto;html=1;entryX=0;entryY=0.5;entryDx=0;entryDy=0;" edge="1" parent="1MLrccxjdp3mu_vWYp1V-28" source="SHjtx8wU5vL2sY_37cBv-43" target="SHjtx8wU5vL2sY_37cBv-45">
          <mxGeometry relative="1" as="geometry" />
        </mxCell>
        <mxCell id="SHjtx8wU5vL2sY_37cBv-64" style="edgeStyle=orthogonalEdgeStyle;rounded=0;orthogonalLoop=1;jettySize=auto;html=1;entryX=0.5;entryY=0;entryDx=0;entryDy=0;entryPerimeter=0;" edge="1" parent="1MLrccxjdp3mu_vWYp1V-28" source="SHjtx8wU5vL2sY_37cBv-43" target="SHjtx8wU5vL2sY_37cBv-51">
          <mxGeometry relative="1" as="geometry">
            <Array as="points">
              <mxPoint x="1010" y="130" />
              <mxPoint x="917" y="130" />
            </Array>
          </mxGeometry>
        </mxCell>
        <mxCell id="SHjtx8wU5vL2sY_37cBv-43" value="卸货中&lt;br&gt;（状态为16）" style="rounded=1;whiteSpace=wrap;html=1;absoluteArcSize=1;arcSize=14;strokeWidth=2;" vertex="1" parent="1MLrccxjdp3mu_vWYp1V-28">
          <mxGeometry x="960" y="40" width="100" height="60" as="geometry" />
        </mxCell>
        <mxCell id="SHjtx8wU5vL2sY_37cBv-48" style="edgeStyle=orthogonalEdgeStyle;rounded=0;orthogonalLoop=1;jettySize=auto;html=1;entryX=0;entryY=0.5;entryDx=0;entryDy=0;entryPerimeter=0;" edge="1" parent="1MLrccxjdp3mu_vWYp1V-28" source="SHjtx8wU5vL2sY_37cBv-45" target="SHjtx8wU5vL2sY_37cBv-47">
          <mxGeometry relative="1" as="geometry" />
        </mxCell>
        <mxCell id="SHjtx8wU5vL2sY_37cBv-45" value="司机完成&lt;br&gt;（状态为10）" style="rounded=1;whiteSpace=wrap;html=1;absoluteArcSize=1;arcSize=14;strokeWidth=2;" vertex="1" parent="1MLrccxjdp3mu_vWYp1V-28">
          <mxGeometry x="1130" y="40" width="100" height="60" as="geometry" />
        </mxCell>
        <mxCell id="SHjtx8wU5vL2sY_37cBv-47" value="结束" style="strokeWidth=2;html=1;shape=mxgraph.flowchart.terminator;whiteSpace=wrap;" vertex="1" parent="1MLrccxjdp3mu_vWYp1V-28">
          <mxGeometry x="1311" y="50" width="80" height="40" as="geometry" />
        </mxCell>
        <mxCell id="SHjtx8wU5vL2sY_37cBv-49" value="五天未装货自动取消&lt;br&gt;（状态为8）" style="strokeWidth=2;html=1;shape=mxgraph.flowchart.terminator;whiteSpace=wrap;" vertex="1" parent="1MLrccxjdp3mu_vWYp1V-28">
          <mxGeometry x="580" y="160" width="120" height="40" as="geometry" />
        </mxCell>
        <mxCell id="SHjtx8wU5vL2sY_37cBv-51" value="十天未完成自动取消&lt;br&gt;（状态为9）" style="strokeWidth=2;html=1;shape=mxgraph.flowchart.terminator;whiteSpace=wrap;" vertex="1" parent="1MLrccxjdp3mu_vWYp1V-28">
          <mxGeometry x="857" y="160" width="120" height="40" as="geometry" />
        </mxCell>
        <mxCell id="SHjtx8wU5vL2sY_37cBv-55" style="edgeStyle=orthogonalEdgeStyle;rounded=0;orthogonalLoop=1;jettySize=auto;html=1;" edge="1" parent="1MLrccxjdp3mu_vWYp1V-28" source="SHjtx8wU5vL2sY_37cBv-33" target="SHjtx8wU5vL2sY_37cBv-47">
          <mxGeometry relative="1" as="geometry">
            <mxPoint x="990" y="210" as="targetPoint" />
            <Array as="points">
              <mxPoint x="470" y="260" />
              <mxPoint x="1360" y="260" />
            </Array>
          </mxGeometry>
        </mxCell>
        <mxCell id="SHjtx8wU5vL2sY_37cBv-58" value="第二个接单司机取消" style="edgeLabel;html=1;align=center;verticalAlign=middle;resizable=0;points=[];" vertex="1" connectable="0" parent="SHjtx8wU5vL2sY_37cBv-55">
          <mxGeometry x="-0.9397" relative="1" as="geometry">
            <mxPoint as="offset" />
          </mxGeometry>
        </mxCell>
        <mxCell id="SHjtx8wU5vL2sY_37cBv-56" style="edgeStyle=orthogonalEdgeStyle;rounded=0;orthogonalLoop=1;jettySize=auto;html=1;" edge="1" parent="1MLrccxjdp3mu_vWYp1V-28" source="SHjtx8wU5vL2sY_37cBv-49">
          <mxGeometry relative="1" as="geometry">
            <mxPoint x="1351" y="90" as="targetPoint" />
            <Array as="points">
              <mxPoint x="640" y="250" />
              <mxPoint x="1351" y="250" />
              <mxPoint x="1351" y="90" />
            </Array>
          </mxGeometry>
        </mxCell>
        <mxCell id="SHjtx8wU5vL2sY_37cBv-57" style="edgeStyle=orthogonalEdgeStyle;rounded=0;orthogonalLoop=1;jettySize=auto;html=1;" edge="1" parent="1MLrccxjdp3mu_vWYp1V-28" source="SHjtx8wU5vL2sY_37cBv-51" target="SHjtx8wU5vL2sY_37cBv-47">
          <mxGeometry relative="1" as="geometry">
            <mxPoint x="1310" y="130" as="targetPoint" />
            <Array as="points">
              <mxPoint x="917" y="240" />
              <mxPoint x="1340" y="240" />
            </Array>
          </mxGeometry>
        </mxCell>
        <mxCell id="SHjtx8wU5vL2sY_37cBv-7" value="db" style="swimlane;html=1;horizontal=0;swimlaneLine=0;startSize=23;" vertex="1" parent="1">
          <mxGeometry x="-350" y="-250" width="1330" height="190" as="geometry" />
        </mxCell>
        <mxCell id="1MLrccxjdp3mu_vWYp1V-29" value="db_order.t_order" style="shape=datastore;whiteSpace=wrap;html=1;" parent="SHjtx8wU5vL2sY_37cBv-7" vertex="1">
          <mxGeometry x="340" width="100" height="60" as="geometry" />
        </mxCell>
        <mxCell id="1MLrccxjdp3mu_vWYp1V-31" value="db_user.t_order" style="shape=datastore;whiteSpace=wrap;html=1;" parent="SHjtx8wU5vL2sY_37cBv-7" vertex="1">
          <mxGeometry x="160" y="60" width="140" height="60" as="geometry" />
        </mxCell>
        <mxCell id="SHjtx8wU5vL2sY_37cBv-12" value="db_order.t_order" style="shape=datastore;whiteSpace=wrap;html=1;" vertex="1" parent="SHjtx8wU5vL2sY_37cBv-7">
          <mxGeometry x="340" y="65" width="100" height="60" as="geometry" />
        </mxCell>
        <mxCell id="1MLrccxjdp3mu_vWYp1V-32" value="db_order_freight" style="shape=datastore;whiteSpace=wrap;html=1;" parent="SHjtx8wU5vL2sY_37cBv-7" vertex="1">
          <mxGeometry x="470" width="100" height="60" as="geometry" />
        </mxCell>
        <mxCell id="SHjtx8wU5vL2sY_37cBv-17" value="db_order.t_order" style="shape=datastore;whiteSpace=wrap;html=1;" vertex="1" parent="SHjtx8wU5vL2sY_37cBv-7">
          <mxGeometry x="340" y="130" width="100" height="60" as="geometry" />
        </mxCell>
        <mxCell id="SHjtx8wU5vL2sY_37cBv-32" style="edgeStyle=orthogonalEdgeStyle;rounded=0;orthogonalLoop=1;jettySize=auto;html=1;entryX=0.5;entryY=0;entryDx=0;entryDy=0;entryPerimeter=0;" edge="1" parent="1" source="SHjtx8wU5vL2sY_37cBv-22" target="SHjtx8wU5vL2sY_37cBv-31">
          <mxGeometry relative="1" as="geometry" />
        </mxCell>
        <mxCell id="SHjtx8wU5vL2sY_37cBv-59" style="edgeStyle=orthogonalEdgeStyle;rounded=0;orthogonalLoop=1;jettySize=auto;html=1;" edge="1" parent="1" source="SHjtx8wU5vL2sY_37cBv-31" target="SHjtx8wU5vL2sY_37cBv-27">
          <mxGeometry relative="1" as="geometry">
            <Array as="points">
              <mxPoint x="330" y="230" />
              <mxPoint x="480" y="230" />
            </Array>
          </mxGeometry>
        </mxCell>
        <mxCell id="SHjtx8wU5vL2sY_37cBv-62" style="edgeStyle=orthogonalEdgeStyle;rounded=0;orthogonalLoop=1;jettySize=auto;html=1;" edge="1" parent="1" source="SHjtx8wU5vL2sY_37cBv-39" target="SHjtx8wU5vL2sY_37cBv-27">
          <mxGeometry relative="1" as="geometry">
            <Array as="points">
              <mxPoint x="490" y="180" />
              <mxPoint x="490" y="180" />
            </Array>
          </mxGeometry>
        </mxCell>
        <mxCell id="SHjtx8wU5vL2sY_37cBv-65" style="edgeStyle=orthogonalEdgeStyle;rounded=0;orthogonalLoop=1;jettySize=auto;html=1;" edge="1" parent="1" source="SHjtx8wU5vL2sY_37cBv-33" target="SHjtx8wU5vL2sY_37cBv-22">
          <mxGeometry relative="1" as="geometry">
            <mxPoint x="260" y="130" as="targetPoint" />
            <Array as="points">
              <mxPoint x="230" y="390" />
              <mxPoint x="230" y="110" />
            </Array>
          </mxGeometry>
        </mxCell>
        <mxCell id="SHjtx8wU5vL2sY_37cBv-66" value="第一个接单司机取消" style="edgeLabel;html=1;align=center;verticalAlign=middle;resizable=0;points=[];" vertex="1" connectable="0" parent="SHjtx8wU5vL2sY_37cBv-65">
          <mxGeometry x="-0.5298" y="3" relative="1" as="geometry">
            <mxPoint as="offset" />
          </mxGeometry>
        </mxCell>
        <mxCell id="SHjtx8wU5vL2sY_37cBv-67" value="账单" style="swimlane;startSize=20;horizontal=0;dashed=1;" vertex="1" parent="1">
          <mxGeometry x="-150" y="490" width="2550" height="400" as="geometry" />
        </mxCell>
        <mxCell id="SHjtx8wU5vL2sY_37cBv-70" value="开始" style="strokeWidth=2;html=1;shape=mxgraph.flowchart.terminator;whiteSpace=wrap;" vertex="1" parent="SHjtx8wU5vL2sY_37cBv-67">
          <mxGeometry x="1140" y="240" width="80" height="30" as="geometry" />
        </mxCell>
        <mxCell id="SHjtx8wU5vL2sY_37cBv-75" value="大车订单等业务" style="edgeStyle=orthogonalEdgeStyle;rounded=0;orthogonalLoop=1;jettySize=auto;html=1;entryX=0;entryY=0.5;entryDx=0;entryDy=0;entryPerimeter=0;" edge="1" parent="SHjtx8wU5vL2sY_37cBv-67" source="SHjtx8wU5vL2sY_37cBv-72" target="SHjtx8wU5vL2sY_37cBv-74">
          <mxGeometry relative="1" as="geometry" />
        </mxCell>
        <mxCell id="SHjtx8wU5vL2sY_37cBv-76" style="edgeStyle=orthogonalEdgeStyle;rounded=0;orthogonalLoop=1;jettySize=auto;html=1;entryX=0;entryY=0.5;entryDx=0;entryDy=0;entryPerimeter=0;" edge="1" parent="SHjtx8wU5vL2sY_37cBv-67" source="SHjtx8wU5vL2sY_37cBv-72" target="SHjtx8wU5vL2sY_37cBv-73">
          <mxGeometry relative="1" as="geometry" />
        </mxCell>
        <mxCell id="SHjtx8wU5vL2sY_37cBv-77" value="企业订单等业务" style="edgeLabel;html=1;align=center;verticalAlign=middle;resizable=0;points=[];" vertex="1" connectable="0" parent="SHjtx8wU5vL2sY_37cBv-76">
          <mxGeometry x="0.17" relative="1" as="geometry">
            <mxPoint as="offset" />
          </mxGeometry>
        </mxCell>
        <mxCell id="SHjtx8wU5vL2sY_37cBv-72" value="业务分流" style="strokeWidth=2;html=1;shape=mxgraph.flowchart.decision;whiteSpace=wrap;" vertex="1" parent="SHjtx8wU5vL2sY_37cBv-67">
          <mxGeometry x="1280" y="227.5" width="100" height="55" as="geometry" />
        </mxCell>
        <mxCell id="SHjtx8wU5vL2sY_37cBv-73" value="发送账单流程" style="strokeWidth=2;html=1;shape=mxgraph.flowchart.terminator;whiteSpace=wrap;" vertex="1" parent="SHjtx8wU5vL2sY_37cBv-67">
          <mxGeometry x="1440" y="330" width="80" height="30" as="geometry" />
        </mxCell>
        <mxCell id="SHjtx8wU5vL2sY_37cBv-83" style="edgeStyle=orthogonalEdgeStyle;rounded=0;orthogonalLoop=1;jettySize=auto;html=1;entryX=0;entryY=0.5;entryDx=0;entryDy=0;entryPerimeter=0;" edge="1" parent="SHjtx8wU5vL2sY_37cBv-67" source="SHjtx8wU5vL2sY_37cBv-74" target="SHjtx8wU5vL2sY_37cBv-80">
          <mxGeometry relative="1" as="geometry" />
        </mxCell>
        <mxCell id="SHjtx8wU5vL2sY_37cBv-74" value="支付流程" style="strokeWidth=2;html=1;shape=mxgraph.flowchart.terminator;whiteSpace=wrap;" vertex="1" parent="SHjtx8wU5vL2sY_37cBv-67">
          <mxGeometry x="1440" y="150" width="80" height="30" as="geometry" />
        </mxCell>
        <mxCell id="SHjtx8wU5vL2sY_37cBv-144" style="edgeStyle=orthogonalEdgeStyle;rounded=0;orthogonalLoop=1;jettySize=auto;html=1;entryX=0;entryY=0.5;entryDx=0;entryDy=0;" edge="1" parent="SHjtx8wU5vL2sY_37cBv-67" source="SHjtx8wU5vL2sY_37cBv-79" target="SHjtx8wU5vL2sY_37cBv-143">
          <mxGeometry relative="1" as="geometry" />
        </mxCell>
        <mxCell id="SHjtx8wU5vL2sY_37cBv-79" value="司机填写后置费用" style="rounded=1;whiteSpace=wrap;html=1;absoluteArcSize=1;arcSize=14;strokeWidth=2;" vertex="1" parent="SHjtx8wU5vL2sY_37cBv-67">
          <mxGeometry x="1570" y="326.25" width="100" height="37.5" as="geometry" />
        </mxCell>
        <mxCell id="SHjtx8wU5vL2sY_37cBv-115" value="是" style="edgeStyle=orthogonalEdgeStyle;rounded=0;orthogonalLoop=1;jettySize=auto;html=1;" edge="1" parent="SHjtx8wU5vL2sY_37cBv-67" source="SHjtx8wU5vL2sY_37cBv-80" target="SHjtx8wU5vL2sY_37cBv-93">
          <mxGeometry relative="1" as="geometry" />
        </mxCell>
        <mxCell id="SHjtx8wU5vL2sY_37cBv-126" style="edgeStyle=orthogonalEdgeStyle;rounded=0;orthogonalLoop=1;jettySize=auto;html=1;entryX=0;entryY=0.5;entryDx=0;entryDy=0;entryPerimeter=0;exitX=0.5;exitY=0;exitDx=0;exitDy=0;exitPerimeter=0;" edge="1" parent="SHjtx8wU5vL2sY_37cBv-67" source="SHjtx8wU5vL2sY_37cBv-80" target="SHjtx8wU5vL2sY_37cBv-116">
          <mxGeometry relative="1" as="geometry">
            <Array as="points">
              <mxPoint x="1620" y="90" />
              <mxPoint x="1860" y="90" />
            </Array>
          </mxGeometry>
        </mxCell>
        <mxCell id="SHjtx8wU5vL2sY_37cBv-127" value="否" style="edgeLabel;html=1;align=center;verticalAlign=middle;resizable=0;points=[];" vertex="1" connectable="0" parent="SHjtx8wU5vL2sY_37cBv-126">
          <mxGeometry x="-0.8247" y="2" relative="1" as="geometry">
            <mxPoint as="offset" />
          </mxGeometry>
        </mxCell>
        <mxCell id="SHjtx8wU5vL2sY_37cBv-80" value="是否有后置费用" style="strokeWidth=2;html=1;shape=mxgraph.flowchart.decision;whiteSpace=wrap;" vertex="1" parent="SHjtx8wU5vL2sY_37cBv-67">
          <mxGeometry x="1560" y="140" width="100" height="50" as="geometry" />
        </mxCell>
        <mxCell id="SHjtx8wU5vL2sY_37cBv-71" style="edgeStyle=orthogonalEdgeStyle;rounded=0;orthogonalLoop=1;jettySize=auto;html=1;entryX=0;entryY=0.5;entryDx=0;entryDy=0;entryPerimeter=0;" edge="1" parent="SHjtx8wU5vL2sY_37cBv-67" source="SHjtx8wU5vL2sY_37cBv-70" target="SHjtx8wU5vL2sY_37cBv-72">
          <mxGeometry relative="1" as="geometry">
            <mxPoint x="1280" y="125" as="targetPoint" />
          </mxGeometry>
        </mxCell>
        <mxCell id="SHjtx8wU5vL2sY_37cBv-78" style="edgeStyle=orthogonalEdgeStyle;rounded=0;orthogonalLoop=1;jettySize=auto;html=1;entryX=0;entryY=0.5;entryDx=0;entryDy=0;" edge="1" parent="SHjtx8wU5vL2sY_37cBv-67" source="SHjtx8wU5vL2sY_37cBv-73" target="SHjtx8wU5vL2sY_37cBv-79">
          <mxGeometry relative="1" as="geometry">
            <mxPoint x="1560" y="45" as="targetPoint" />
          </mxGeometry>
        </mxCell>
        <mxCell id="SHjtx8wU5vL2sY_37cBv-117" style="edgeStyle=orthogonalEdgeStyle;rounded=0;orthogonalLoop=1;jettySize=auto;html=1;entryX=0;entryY=0.5;entryDx=0;entryDy=0;entryPerimeter=0;" edge="1" parent="SHjtx8wU5vL2sY_37cBv-67" source="SHjtx8wU5vL2sY_37cBv-93" target="SHjtx8wU5vL2sY_37cBv-116">
          <mxGeometry relative="1" as="geometry" />
        </mxCell>
        <mxCell id="SHjtx8wU5vL2sY_37cBv-93" value="用户填写后置费用" style="rounded=1;whiteSpace=wrap;html=1;absoluteArcSize=1;arcSize=14;strokeWidth=2;" vertex="1" parent="SHjtx8wU5vL2sY_37cBv-67">
          <mxGeometry x="1704" y="147.5" width="100" height="35" as="geometry" />
        </mxCell>
        <mxCell id="SHjtx8wU5vL2sY_37cBv-134" style="edgeStyle=orthogonalEdgeStyle;rounded=0;orthogonalLoop=1;jettySize=auto;html=1;entryX=0.625;entryY=0;entryDx=0;entryDy=0;entryPerimeter=0;exitX=1;exitY=0.5;exitDx=0;exitDy=0;" edge="1" parent="SHjtx8wU5vL2sY_37cBv-67" source="SHjtx8wU5vL2sY_37cBv-95" target="SHjtx8wU5vL2sY_37cBv-121">
          <mxGeometry relative="1" as="geometry" />
        </mxCell>
        <mxCell id="SHjtx8wU5vL2sY_37cBv-95" value="48小时自动完单" style="rounded=1;whiteSpace=wrap;html=1;absoluteArcSize=1;arcSize=14;strokeWidth=2;" vertex="1" parent="SHjtx8wU5vL2sY_37cBv-67">
          <mxGeometry x="2290" y="147.5" width="100" height="35" as="geometry" />
        </mxCell>
        <mxCell id="SHjtx8wU5vL2sY_37cBv-119" value="是" style="edgeStyle=orthogonalEdgeStyle;rounded=0;orthogonalLoop=1;jettySize=auto;html=1;entryX=0;entryY=0.5;entryDx=0;entryDy=0;exitX=1;exitY=0.5;exitDx=0;exitDy=0;exitPerimeter=0;entryPerimeter=0;" edge="1" parent="SHjtx8wU5vL2sY_37cBv-67" source="SHjtx8wU5vL2sY_37cBv-116" target="SHjtx8wU5vL2sY_37cBv-129">
          <mxGeometry relative="1" as="geometry" />
        </mxCell>
        <mxCell id="SHjtx8wU5vL2sY_37cBv-135" style="edgeStyle=orthogonalEdgeStyle;rounded=0;orthogonalLoop=1;jettySize=auto;html=1;entryX=0.5;entryY=0;entryDx=0;entryDy=0;exitX=0.5;exitY=0;exitDx=0;exitDy=0;exitPerimeter=0;" edge="1" parent="SHjtx8wU5vL2sY_37cBv-67" source="SHjtx8wU5vL2sY_37cBv-116" target="SHjtx8wU5vL2sY_37cBv-95">
          <mxGeometry relative="1" as="geometry">
            <Array as="points">
              <mxPoint x="1900" y="90" />
              <mxPoint x="2340" y="90" />
            </Array>
          </mxGeometry>
        </mxCell>
        <mxCell id="SHjtx8wU5vL2sY_37cBv-136" value="否" style="edgeLabel;html=1;align=center;verticalAlign=middle;resizable=0;points=[];" vertex="1" connectable="0" parent="SHjtx8wU5vL2sY_37cBv-135">
          <mxGeometry x="-0.9297" y="3" relative="1" as="geometry">
            <mxPoint as="offset" />
          </mxGeometry>
        </mxCell>
        <mxCell id="SHjtx8wU5vL2sY_37cBv-116" value="是否现金支付" style="strokeWidth=2;html=1;shape=mxgraph.flowchart.decision;whiteSpace=wrap;" vertex="1" parent="SHjtx8wU5vL2sY_37cBv-67">
          <mxGeometry x="1850" y="140" width="100" height="50" as="geometry" />
        </mxCell>
        <mxCell id="SHjtx8wU5vL2sY_37cBv-133" style="edgeStyle=orthogonalEdgeStyle;rounded=0;orthogonalLoop=1;jettySize=auto;html=1;" edge="1" parent="SHjtx8wU5vL2sY_37cBv-67" source="SHjtx8wU5vL2sY_37cBv-118" target="SHjtx8wU5vL2sY_37cBv-95">
          <mxGeometry relative="1" as="geometry" />
        </mxCell>
        <mxCell id="SHjtx8wU5vL2sY_37cBv-118" value="司机现金结清&lt;br&gt;（状态为12）" style="rounded=1;whiteSpace=wrap;html=1;absoluteArcSize=1;arcSize=14;strokeWidth=2;" vertex="1" parent="SHjtx8wU5vL2sY_37cBv-67">
          <mxGeometry x="2160" y="151.25" width="80" height="27.5" as="geometry" />
        </mxCell>
        <mxCell id="SHjtx8wU5vL2sY_37cBv-121" value="运单结束&lt;br&gt;（状态为2）" style="strokeWidth=2;html=1;shape=mxgraph.flowchart.terminator;whiteSpace=wrap;" vertex="1" parent="SHjtx8wU5vL2sY_37cBv-67">
          <mxGeometry x="2440" y="227.5" width="80" height="30" as="geometry" />
        </mxCell>
        <mxCell id="SHjtx8wU5vL2sY_37cBv-132" value="是" style="edgeStyle=orthogonalEdgeStyle;rounded=0;orthogonalLoop=1;jettySize=auto;html=1;entryX=0;entryY=0.5;entryDx=0;entryDy=0;" edge="1" parent="SHjtx8wU5vL2sY_37cBv-67" source="SHjtx8wU5vL2sY_37cBv-129" target="SHjtx8wU5vL2sY_37cBv-118">
          <mxGeometry relative="1" as="geometry" />
        </mxCell>
        <mxCell id="SHjtx8wU5vL2sY_37cBv-137" style="edgeStyle=orthogonalEdgeStyle;rounded=0;orthogonalLoop=1;jettySize=auto;html=1;exitX=0.5;exitY=1;exitDx=0;exitDy=0;exitPerimeter=0;" edge="1" parent="SHjtx8wU5vL2sY_37cBv-67" source="SHjtx8wU5vL2sY_37cBv-129" target="SHjtx8wU5vL2sY_37cBv-121">
          <mxGeometry relative="1" as="geometry">
            <Array as="points">
              <mxPoint x="2060" y="243" />
            </Array>
          </mxGeometry>
        </mxCell>
        <mxCell id="SHjtx8wU5vL2sY_37cBv-142" value="否&lt;br&gt;线上支付运单直接结束" style="edgeLabel;html=1;align=center;verticalAlign=middle;resizable=0;points=[];" vertex="1" connectable="0" parent="SHjtx8wU5vL2sY_37cBv-137">
          <mxGeometry x="-0.8952" y="1" relative="1" as="geometry">
            <mxPoint as="offset" />
          </mxGeometry>
        </mxCell>
        <mxCell id="SHjtx8wU5vL2sY_37cBv-129" value="是否为现金单" style="strokeWidth=2;html=1;shape=mxgraph.flowchart.decision;whiteSpace=wrap;" vertex="1" parent="SHjtx8wU5vL2sY_37cBv-67">
          <mxGeometry x="2010" y="140" width="100" height="50" as="geometry" />
        </mxCell>
        <mxCell id="SHjtx8wU5vL2sY_37cBv-143" value="12小时发送账单&lt;br&gt;（状态为13）" style="rounded=1;whiteSpace=wrap;html=1;absoluteArcSize=1;arcSize=14;strokeWidth=2;" vertex="1" parent="SHjtx8wU5vL2sY_37cBv-67">
          <mxGeometry x="1740" y="313.13" width="100" height="63.75" as="geometry" />
        </mxCell>
        <mxCell id="SHjtx8wU5vL2sY_37cBv-145" style="edgeStyle=orthogonalEdgeStyle;rounded=0;orthogonalLoop=1;jettySize=auto;html=1;exitX=1;exitY=0.25;exitDx=0;exitDy=0;entryX=0.172;entryY=0.959;entryDx=0;entryDy=0;entryPerimeter=0;" edge="1" parent="SHjtx8wU5vL2sY_37cBv-67" source="SHjtx8wU5vL2sY_37cBv-143" target="SHjtx8wU5vL2sY_37cBv-121">
          <mxGeometry relative="1" as="geometry">
            <mxPoint x="2150.0000000000005" y="350" as="targetPoint" />
            <Array as="points">
              <mxPoint x="1840" y="320" />
              <mxPoint x="2454" y="320" />
            </Array>
          </mxGeometry>
        </mxCell>
        <mxCell id="SHjtx8wU5vL2sY_37cBv-146" value="1、用户确认账单" style="edgeLabel;html=1;align=center;verticalAlign=middle;resizable=0;points=[];" vertex="1" connectable="0" parent="SHjtx8wU5vL2sY_37cBv-145">
          <mxGeometry x="-0.7587" y="3" relative="1" as="geometry">
            <mxPoint x="6.55" y="-0.76" as="offset" />
          </mxGeometry>
        </mxCell>
        <mxCell id="SHjtx8wU5vL2sY_37cBv-147" style="edgeStyle=orthogonalEdgeStyle;rounded=0;orthogonalLoop=1;jettySize=auto;html=1;entryX=0.319;entryY=0.982;entryDx=0;entryDy=0;entryPerimeter=0;" edge="1" parent="SHjtx8wU5vL2sY_37cBv-67" source="SHjtx8wU5vL2sY_37cBv-143" target="SHjtx8wU5vL2sY_37cBv-121">
          <mxGeometry relative="1" as="geometry">
            <mxPoint x="2120.0000000000005" y="340" as="targetPoint" />
            <Array as="points">
              <mxPoint x="2465" y="330" />
            </Array>
          </mxGeometry>
        </mxCell>
        <mxCell id="SHjtx8wU5vL2sY_37cBv-148" value="2、司机现金结清" style="edgeLabel;html=1;align=center;verticalAlign=middle;resizable=0;points=[];" vertex="1" connectable="0" parent="SHjtx8wU5vL2sY_37cBv-147">
          <mxGeometry x="-0.8532" relative="1" as="geometry">
            <mxPoint x="28.970000000000006" as="offset" />
          </mxGeometry>
        </mxCell>
        <mxCell id="SHjtx8wU5vL2sY_37cBv-149" style="edgeStyle=orthogonalEdgeStyle;rounded=0;orthogonalLoop=1;jettySize=auto;html=1;exitX=1;exitY=0.75;exitDx=0;exitDy=0;entryX=0.5;entryY=1;entryDx=0;entryDy=0;entryPerimeter=0;" edge="1" parent="SHjtx8wU5vL2sY_37cBv-67" source="SHjtx8wU5vL2sY_37cBv-143" target="SHjtx8wU5vL2sY_37cBv-121">
          <mxGeometry relative="1" as="geometry">
            <mxPoint x="2220.0000000000005" y="380" as="targetPoint" />
            <Array as="points">
              <mxPoint x="1840" y="350" />
              <mxPoint x="2480" y="350" />
            </Array>
          </mxGeometry>
        </mxCell>
        <mxCell id="SHjtx8wU5vL2sY_37cBv-151" value="3、现金单无后置费用48小时自动结清" style="edgeLabel;html=1;align=center;verticalAlign=middle;resizable=0;points=[];" vertex="1" connectable="0" parent="SHjtx8wU5vL2sY_37cBv-149">
          <mxGeometry x="-0.7761" relative="1" as="geometry">
            <mxPoint x="66.58" as="offset" />
          </mxGeometry>
        </mxCell>
        <mxCell id="SHjtx8wU5vL2sY_37cBv-152" style="edgeStyle=orthogonalEdgeStyle;rounded=0;orthogonalLoop=1;jettySize=auto;html=1;exitX=1;exitY=0.75;exitDx=0;exitDy=0;" edge="1" parent="SHjtx8wU5vL2sY_37cBv-67" source="SHjtx8wU5vL2sY_37cBv-143" target="SHjtx8wU5vL2sY_37cBv-121">
          <mxGeometry relative="1" as="geometry">
            <mxPoint x="2500" y="260" as="targetPoint" />
            <Array as="points">
              <mxPoint x="1840" y="370" />
              <mxPoint x="2500" y="370" />
            </Array>
          </mxGeometry>
        </mxCell>
        <mxCell id="SHjtx8wU5vL2sY_37cBv-154" value="4、企业单48小时用户未确认" style="edgeLabel;html=1;align=center;verticalAlign=middle;resizable=0;points=[];" vertex="1" connectable="0" parent="SHjtx8wU5vL2sY_37cBv-152">
          <mxGeometry x="-0.7876" relative="1" as="geometry">
            <mxPoint x="39.31" y="0.62" as="offset" />
          </mxGeometry>
        </mxCell>
        <mxCell id="SHjtx8wU5vL2sY_37cBv-69" style="edgeStyle=orthogonalEdgeStyle;rounded=0;orthogonalLoop=1;jettySize=auto;html=1;entryX=0.5;entryY=0;entryDx=0;entryDy=0;entryPerimeter=0;" edge="1" parent="1" source="SHjtx8wU5vL2sY_37cBv-45" target="SHjtx8wU5vL2sY_37cBv-70">
          <mxGeometry relative="1" as="geometry">
            <mxPoint x="1030" y="540" as="targetPoint" />
          </mxGeometry>
        </mxCell>
      </root>
    </mxGraphModel>
  </diagram>
</mxfile>
